<svg width="884" height="884" viewBox="0 0 884 884" fill="none" xmlns="http://www.w3.org/2000/svg">
<g filter="url(#filter0_f_4_0)">
<rect x="88" y="88" width="708" height="708" fill="url(#paint0_radial_4_0)"/>
<rect x="88" y="88" width="708" height="708" fill="url(#paint1_radial_4_0)" style="mix-blend-mode:color-dodge"/>
<rect x="88" y="88" width="708" height="708" fill="url(#paint2_radial_4_0)"/>
<rect x="88" y="88" width="708" height="708" fill="url(#paint3_radial_4_0)"/>
<rect x="88" y="88" width="708" height="708" fill="url(#paint4_radial_4_0)" fill-opacity="0.3" style="mix-blend-mode:overlay"/>
</g>
<g filter="url(#filter1_d_4_0)">
<rect x="116.667" y="116.667" width="650.667" height="650.667" rx="0.5" fill="url(#paint5_linear_4_0)"/>
<rect x="116.042" y="116.042" width="651.917" height="651.917" rx="1.125" stroke="white" stroke-width="1.25" stroke-linecap="round" stroke-linejoin="round" style="mix-blend-mode:soft-light"/>
<g filter="url(#filter2_d_4_0)">
<mask id="path-4-inside-1_4_0" fill="white">
<path fill-rule="evenodd" clip-rule="evenodd" d="M352.307 372.922C346.258 379.976 336.579 385.539 326.901 384.744C325.691 375.207 330.429 365.074 335.974 358.815C342.023 351.563 352.609 346.397 361.179 346C362.187 355.934 358.255 365.67 352.307 372.922ZM338.487 391.59C334.443 393.155 331.018 394.48 328.413 394.48C325.489 394.48 321.923 393.084 317.919 391.517C312.673 389.463 306.675 387.115 300.385 387.228C285.968 387.426 272.56 395.473 265.2 408.288C250.077 433.919 261.268 471.868 275.887 492.73C283.045 503.062 291.614 514.387 302.906 513.99C307.873 513.805 311.447 512.311 315.145 510.765C319.403 508.985 323.826 507.135 330.732 507.135C337.398 507.135 341.628 508.936 345.688 510.665C349.548 512.309 353.256 513.888 358.759 513.791C370.454 513.593 377.814 503.46 384.972 493.128C392.696 482.039 396.091 471.217 396.606 469.575C396.636 469.481 396.656 469.417 396.667 469.385C396.654 469.373 396.559 469.329 396.391 469.254C393.808 468.089 374.071 459.185 373.882 435.31C373.692 415.27 389.537 405.117 392.031 403.518L392.031 403.518L392.032 403.518C392.183 403.421 392.285 403.355 392.331 403.321C382.25 388.618 366.522 387.029 361.078 386.632C352.551 386.148 344.771 389.158 338.487 391.59ZM443.604 511.333H423.581V387.326H449.19L487.174 482.029H487.776L525.76 387.326H551.37V511.333H531.432V423.162H530.745L494.995 511.333H479.956L444.206 423.162H443.604V511.333ZM627.914 511.333H606.172V408.466H605.656L573.602 430.466V410.099L606 387.326H627.914V511.333Z"/>
</mask>
<path fill-rule="evenodd" clip-rule="evenodd" d="M352.307 372.922C346.258 379.976 336.579 385.539 326.901 384.744C325.691 375.207 330.429 365.074 335.974 358.815C342.023 351.563 352.609 346.397 361.179 346C362.187 355.934 358.255 365.67 352.307 372.922ZM338.487 391.59C334.443 393.155 331.018 394.48 328.413 394.48C325.489 394.48 321.923 393.084 317.919 391.517C312.673 389.463 306.675 387.115 300.385 387.228C285.968 387.426 272.56 395.473 265.2 408.288C250.077 433.919 261.268 471.868 275.887 492.73C283.045 503.062 291.614 514.387 302.906 513.99C307.873 513.805 311.447 512.311 315.145 510.765C319.403 508.985 323.826 507.135 330.732 507.135C337.398 507.135 341.628 508.936 345.688 510.665C349.548 512.309 353.256 513.888 358.759 513.791C370.454 513.593 377.814 503.46 384.972 493.128C392.696 482.039 396.091 471.217 396.606 469.575C396.636 469.481 396.656 469.417 396.667 469.385C396.654 469.373 396.559 469.329 396.391 469.254C393.808 468.089 374.071 459.185 373.882 435.31C373.692 415.27 389.537 405.117 392.031 403.518L392.031 403.518L392.032 403.518C392.183 403.421 392.285 403.355 392.331 403.321C382.25 388.618 366.522 387.029 361.078 386.632C352.551 386.148 344.771 389.158 338.487 391.59ZM443.604 511.333H423.581V387.326H449.19L487.174 482.029H487.776L525.76 387.326H551.37V511.333H531.432V423.162H530.745L494.995 511.333H479.956L444.206 423.162H443.604V511.333ZM627.914 511.333H606.172V408.466H605.656L573.602 430.466V410.099L606 387.326H627.914V511.333Z" fill="url(#paint6_linear_4_0)"/>
<path d="M326.901 384.744L326.652 384.776L326.678 384.977L326.88 384.993L326.901 384.744ZM352.307 372.922L352.497 373.085L352.5 373.081L352.307 372.922ZM335.974 358.815L336.161 358.981L336.166 358.976L335.974 358.815ZM361.179 346L361.427 345.975L361.404 345.739L361.167 345.75L361.179 346ZM338.487 391.59L338.397 391.357L338.397 391.357L338.487 391.59ZM317.919 391.517L317.828 391.749L317.828 391.749L317.919 391.517ZM300.385 387.228L300.389 387.478L300.39 387.478L300.385 387.228ZM265.2 408.288L265.415 408.416L265.417 408.413L265.2 408.288ZM275.887 492.73L276.092 492.588L276.091 492.587L275.887 492.73ZM302.906 513.99L302.915 514.24L302.915 514.24L302.906 513.99ZM315.145 510.765L315.049 510.534L315.049 510.534L315.145 510.765ZM345.688 510.665L345.786 510.435L345.786 510.435L345.688 510.665ZM358.759 513.791L358.755 513.541L358.755 513.541L358.759 513.791ZM384.972 493.128L384.767 492.985L384.766 492.985L384.972 493.128ZM396.606 469.575L396.845 469.65L396.845 469.65L396.606 469.575ZM396.667 469.385L396.903 469.465L396.954 469.317L396.842 469.207L396.667 469.385ZM396.391 469.254L396.493 469.026L396.493 469.026L396.391 469.254ZM373.882 435.31L374.132 435.308L374.132 435.308L373.882 435.31ZM392.031 403.518L392.166 403.729L392.17 403.726L392.031 403.518ZM392.031 403.518L391.899 403.306L391.893 403.31L392.031 403.518ZM392.032 403.518L392.164 403.73L392.167 403.728L392.032 403.518ZM392.331 403.321L392.48 403.522L392.674 403.379L392.538 403.18L392.331 403.321ZM361.078 386.632L361.096 386.382L361.092 386.382L361.078 386.632ZM423.581 511.333H423.331V511.583H423.581V511.333ZM443.604 511.333V511.583H443.854V511.333H443.604ZM423.581 387.326V387.076H423.331V387.326H423.581ZM449.19 387.326L449.422 387.233L449.359 387.076H449.19V387.326ZM487.174 482.029L486.942 482.122L487.005 482.279H487.174V482.029ZM487.776 482.029V482.279H487.945L488.008 482.122L487.776 482.029ZM525.76 387.326V387.076H525.591L525.528 387.233L525.76 387.326ZM551.37 387.326H551.62V387.076H551.37V387.326ZM551.37 511.333V511.583H551.62V511.333H551.37ZM531.432 511.333H531.182V511.583H531.432V511.333ZM531.432 423.162H531.682V422.912H531.432V423.162ZM530.745 423.162V422.912H530.576L530.513 423.068L530.745 423.162ZM494.995 511.333V511.583H495.163L495.226 511.427L494.995 511.333ZM479.956 511.333L479.724 511.427L479.787 511.583H479.956V511.333ZM444.206 423.162L444.437 423.068L444.374 422.912H444.206V423.162ZM443.604 423.162V422.912H443.354V423.162H443.604ZM606.172 511.333H605.922V511.583H606.172V511.333ZM627.914 511.333V511.583H628.164V511.333H627.914ZM606.172 408.466H606.422V408.216H606.172V408.466ZM605.656 408.466V408.216H605.579L605.515 408.26L605.656 408.466ZM573.602 430.466H573.352V430.941L573.743 430.672L573.602 430.466ZM573.602 410.099L573.458 409.895L573.352 409.969V410.099H573.602ZM606 387.326V387.076H605.921L605.856 387.121L606 387.326ZM627.914 387.326H628.164V387.076H627.914V387.326ZM326.88 384.993C336.663 385.797 346.413 380.178 352.496 373.085L352.117 372.759C346.102 379.773 336.495 385.281 326.921 384.495L326.88 384.993ZM335.787 358.65C330.212 364.943 325.431 375.145 326.652 384.776L327.149 384.713C325.951 375.269 330.647 365.205 336.161 358.981L335.787 358.65ZM361.167 345.75C352.526 346.151 341.875 351.351 335.782 358.655L336.166 358.976C342.171 351.776 352.692 346.644 361.19 346.25L361.167 345.75ZM352.5 373.081C358.48 365.79 362.444 355.99 361.427 345.975L360.93 346.025C361.93 355.879 358.03 365.55 352.113 372.764L352.5 373.081ZM328.413 394.73C329.753 394.73 331.29 394.39 332.985 393.86C334.682 393.33 336.557 392.605 338.577 391.823L338.397 391.357C336.372 392.14 334.514 392.859 332.836 393.383C331.156 393.907 329.677 394.23 328.413 394.23V394.73ZM317.828 391.749C319.828 392.532 321.729 393.277 323.497 393.825C325.264 394.373 326.914 394.73 328.413 394.73V394.23C326.988 394.23 325.393 393.889 323.645 393.347C321.898 392.805 320.014 392.068 318.01 391.284L317.828 391.749ZM300.39 387.478C306.622 387.366 312.574 389.693 317.828 391.749L318.01 391.284C312.772 389.233 306.728 386.864 300.381 386.978L300.39 387.478ZM265.417 408.413C272.734 395.672 286.063 387.675 300.389 387.478L300.382 386.978C285.874 387.178 272.385 395.275 264.983 408.164L265.417 408.413ZM276.091 492.587C268.803 482.186 262.365 467.517 259.636 452.254C256.908 436.989 257.895 421.161 265.415 408.416L264.984 408.161C257.382 421.046 256.403 437.009 259.144 452.342C261.885 467.676 268.352 482.413 275.682 492.874L276.091 492.587ZM302.897 513.74C297.344 513.936 292.44 511.25 288.015 507.199C283.589 503.147 279.672 497.755 276.092 492.588L275.681 492.873C279.26 498.038 283.206 503.474 287.677 507.568C292.15 511.663 297.176 514.442 302.915 514.24L302.897 513.74ZM315.049 510.534C311.351 512.08 307.814 513.557 302.897 513.74L302.915 514.24C307.932 514.053 311.543 512.542 315.241 510.995L315.049 510.534ZM330.732 506.885C323.773 506.885 319.311 508.752 315.049 510.534L315.241 510.995C319.494 509.217 323.878 507.385 330.732 507.385V506.885ZM345.786 510.435C341.72 508.704 337.452 506.885 330.732 506.885V507.385C337.345 507.385 341.535 509.169 345.59 510.895L345.786 510.435ZM358.755 513.541C353.309 513.637 349.644 512.078 345.786 510.435L345.59 510.895C349.452 512.54 353.202 514.139 358.763 514.041L358.755 513.541ZM384.766 492.985C381.185 498.155 377.57 503.247 373.398 507.075C369.23 510.898 364.523 513.443 358.755 513.541L358.763 514.041C364.69 513.941 369.51 511.32 373.736 507.444C377.956 503.572 381.6 498.433 385.177 493.27L384.766 492.985ZM396.368 469.5C395.855 471.135 392.469 481.928 384.767 492.985L385.177 493.271C392.923 482.151 396.327 471.3 396.845 469.65L396.368 469.5ZM396.43 469.305C396.418 469.34 396.397 469.408 396.368 469.5L396.845 469.65C396.875 469.554 396.894 469.494 396.903 469.465L396.43 469.305ZM396.288 469.481C396.373 469.52 396.437 469.549 396.481 469.569C396.503 469.58 396.518 469.587 396.527 469.592C396.531 469.594 396.531 469.594 396.529 469.593C396.528 469.592 396.524 469.59 396.519 469.586C396.515 469.584 396.504 469.575 396.491 469.563L396.842 469.207C396.818 469.183 396.793 469.168 396.788 469.165C396.777 469.158 396.766 469.153 396.758 469.148C396.739 469.139 396.717 469.128 396.693 469.117C396.645 469.094 396.577 469.063 396.493 469.026L396.288 469.481ZM373.632 435.312C373.822 459.351 393.7 468.314 396.288 469.481L396.493 469.026C393.917 467.863 374.32 459.019 374.132 435.308L373.632 435.312ZM391.896 403.308C389.398 404.908 373.44 415.128 373.632 435.312L374.132 435.308C373.943 415.412 389.675 405.325 392.166 403.729L391.896 403.308ZM391.893 403.31L391.892 403.31L392.17 403.726L392.17 403.726L391.893 403.31ZM391.899 403.306L391.899 403.306L392.164 403.73L392.164 403.73L391.899 403.306ZM392.183 403.12C392.145 403.148 392.053 403.207 391.897 403.307L392.167 403.728C392.313 403.635 392.425 403.563 392.48 403.522L392.183 403.12ZM361.06 386.881C366.492 387.277 382.113 388.861 392.125 403.463L392.538 403.18C382.386 388.376 366.552 386.781 361.096 386.382L361.06 386.881ZM338.577 391.823C344.867 389.389 352.599 386.401 361.064 386.881L361.092 386.382C352.504 385.895 344.675 388.928 338.397 391.357L338.577 391.823ZM423.581 511.583H443.604V511.083H423.581V511.583ZM423.331 387.326V511.333H423.831V387.326H423.331ZM449.19 387.076H423.581V387.576H449.19V387.076ZM487.407 481.936L449.422 387.233L448.958 387.419L486.942 482.122L487.407 481.936ZM487.776 481.779H487.174V482.279H487.776V481.779ZM525.528 387.233L487.544 481.936L488.008 482.122L525.992 387.419L525.528 387.233ZM551.37 387.076H525.76V387.576H551.37V387.076ZM551.62 511.333V387.326H551.12V511.333H551.62ZM531.432 511.583H551.37V511.083H531.432V511.583ZM531.182 423.162V511.333H531.682V423.162H531.182ZM530.745 423.412H531.432V422.912H530.745V423.412ZM495.226 511.427L530.976 423.256L530.513 423.068L494.763 511.24L495.226 511.427ZM479.956 511.583H494.995V511.083H479.956V511.583ZM443.974 423.256L479.724 511.427L480.187 511.24L444.437 423.068L443.974 423.256ZM443.604 423.412H444.206V422.912H443.604V423.412ZM443.854 511.333V423.162H443.354V511.333H443.854ZM606.172 511.583H627.914V511.083H606.172V511.583ZM605.922 408.466V511.333H606.422V408.466H605.922ZM605.656 408.716H606.172V408.216H605.656V408.716ZM573.743 430.672L605.798 408.672L605.515 408.26L573.46 430.26L573.743 430.672ZM573.352 410.099V430.466H573.852V410.099H573.352ZM605.856 387.121L573.458 409.895L573.745 410.304L606.144 387.53L605.856 387.121ZM627.914 387.076H606V387.576H627.914V387.076ZM628.164 511.333V387.326H627.664V511.333H628.164Z" fill="url(#paint7_linear_4_0)" style="mix-blend-mode:overlay" mask="url(#path-4-inside-1_4_0)"/>
</g>
</g>
<defs>
<filter id="filter0_f_4_0" x="0" y="0" width="884" height="884" filterUnits="userSpaceOnUse" color-interpolation-filters="sRGB">
<feFlood flood-opacity="0" result="BackgroundImageFix"/>
<feBlend mode="normal" in="SourceGraphic" in2="BackgroundImageFix" result="shape"/>
<feGaussianBlur stdDeviation="44" result="effect1_foregroundBlur_4_0"/>
</filter>
<filter id="filter1_d_4_0" x="75.4167" y="75.4167" width="733.167" height="733.167" filterUnits="userSpaceOnUse" color-interpolation-filters="sRGB">
<feFlood flood-opacity="0" result="BackgroundImageFix"/>
<feColorMatrix in="SourceAlpha" type="matrix" values="0 0 0 0 0 0 0 0 0 0 0 0 0 0 0 0 0 0 127 0" result="hardAlpha"/>
<feOffset/>
<feGaussianBlur stdDeviation="20"/>
<feColorMatrix type="matrix" values="0 0 0 0 1 0 0 0 0 1 0 0 0 0 1 0 0 0 1 0"/>
<feBlend mode="overlay" in2="BackgroundImageFix" result="effect1_dropShadow_4_0"/>
<feBlend mode="normal" in="SourceGraphic" in2="effect1_dropShadow_4_0" result="shape"/>
</filter>
<filter id="filter2_d_4_0" x="214" y="306" width="457.914" height="256" filterUnits="userSpaceOnUse" color-interpolation-filters="sRGB">
<feFlood flood-opacity="0" result="BackgroundImageFix"/>
<feColorMatrix in="SourceAlpha" type="matrix" values="0 0 0 0 0 0 0 0 0 0 0 0 0 0 0 0 0 0 127 0" result="hardAlpha"/>
<feOffset dy="4"/>
<feGaussianBlur stdDeviation="22"/>
<feColorMatrix type="matrix" values="0 0 0 0 0 0 0 0 0 0 0 0 0 0 0 0 0 0 0.16 0"/>
<feBlend mode="normal" in2="BackgroundImageFix" result="effect1_dropShadow_4_0"/>
<feBlend mode="normal" in="SourceGraphic" in2="effect1_dropShadow_4_0" result="shape"/>
</filter>
<radialGradient id="paint0_radial_4_0" cx="0" cy="0" r="1" gradientUnits="userSpaceOnUse" gradientTransform="translate(88.0001 796) rotate(-45) scale(500.632 703.28)">
<stop stop-color="#E81D72"/>
<stop offset="1" stop-color="#FF0000" stop-opacity="0"/>
</radialGradient>
<radialGradient id="paint1_radial_4_0" cx="0" cy="0" r="1" gradientUnits="userSpaceOnUse" gradientTransform="translate(88 88) rotate(45) scale(500.632 296.784)">
<stop stop-color="#FF8461"/>
<stop offset="1" stop-color="#FF5C00" stop-opacity="0.6"/>
</radialGradient>
<radialGradient id="paint2_radial_4_0" cx="0" cy="0" r="1" gradientUnits="userSpaceOnUse" gradientTransform="translate(796 88) rotate(135) scale(500.632 779.565)">
<stop stop-color="#00A7FF"/>
<stop offset="1" stop-color="#00A6FE" stop-opacity="0.12"/>
</radialGradient>
<radialGradient id="paint3_radial_4_0" cx="0" cy="0" r="1" gradientUnits="userSpaceOnUse" gradientTransform="translate(796 796) rotate(-135) scale(500.632)">
<stop offset="0.10272" stop-color="#520AEB"/>
<stop offset="1" stop-color="#9F73FF" stop-opacity="0"/>
</radialGradient>
<radialGradient id="paint4_radial_4_0" cx="0" cy="0" r="1" gradientUnits="userSpaceOnUse" gradientTransform="translate(442 88) rotate(90) scale(414.311 137.969)">
<stop stop-color="#F9C43C"/>
<stop offset="1" stop-color="#E7A601" stop-opacity="0"/>
</radialGradient>
<linearGradient id="paint5_linear_4_0" x1="116.667" y1="116.667" x2="767.333" y2="767.333" gradientUnits="userSpaceOnUse">
<stop stop-color="#201F24"/>
<stop offset="1" stop-color="#060606"/>
</linearGradient>
<linearGradient id="paint6_linear_4_0" x1="258" y1="514" x2="672.667" y2="370" gradientUnits="userSpaceOnUse">
<stop stop-color="#4E525B"/>
<stop offset="1" stop-color="white"/>
</linearGradient>
<linearGradient id="paint7_linear_4_0" x1="258" y1="523.333" x2="628.667" y2="391.333" gradientUnits="userSpaceOnUse">
<stop stop-color="#9E9E9E"/>
<stop offset="1" stop-color="#F3F3F3" stop-opacity="0"/>
</linearGradient>
</defs>
</svg>
