<svg width="884" height="884" viewBox="0 0 884 884" fill="none" xmlns="http://www.w3.org/2000/svg">
<g filter="url(#filter0_f_4_0)">
<rect x="88" y="88" width="708" height="708" fill="url(#paint0_radial_4_0)"/>
<rect x="88" y="88" width="708" height="708" fill="url(#paint1_radial_4_0)" style="mix-blend-mode:color-dodge"/>
<rect x="88" y="88" width="708" height="708" fill="url(#paint2_radial_4_0)"/>
<rect x="88" y="88" width="708" height="708" fill="url(#paint3_radial_4_0)"/>
<rect x="88" y="88" width="708" height="708" fill="url(#paint4_radial_4_0)" fill-opacity="0.3" style="mix-blend-mode:overlay"/>
</g>
<g filter="url(#filter1_d_4_0)">
<rect x="116.667" y="116.667" width="650.667" height="650.667" rx="0.5" fill="url(#paint5_linear_4_0)"/>
<rect x="116.042" y="116.042" width="651.917" height="651.917" rx="1.125" stroke="white" stroke-width="1.25" stroke-linecap="round" stroke-linejoin="round" style="mix-blend-mode:soft-light"/>
<g filter="url(#filter2_d_4_0)">
<mask id="path-4-inside-1_4_0" fill="white">
<path d="M326.901 384.744C336.579 385.539 346.258 379.976 352.307 372.922C358.255 365.67 362.187 355.934 361.179 346C352.609 346.397 342.023 351.563 335.974 358.815C330.429 365.074 325.691 375.207 326.901 384.744Z"/>
<path d="M328.413 394.48C335.067 394.48 347.064 385.837 361.078 386.632C366.522 387.029 382.25 388.618 392.331 403.321C391.525 403.917 373.68 414.05 373.882 435.31C374.083 460.742 396.465 469.186 396.667 469.385C396.465 469.981 393.138 481.405 384.972 493.128C377.814 503.46 370.454 513.593 358.759 513.791C347.467 513.99 343.737 507.135 330.732 507.135C317.827 507.135 313.593 513.593 302.906 513.99C291.614 514.387 283.045 503.062 275.887 492.73C261.268 471.868 250.077 433.919 265.2 408.288C272.56 395.473 285.968 387.426 300.385 387.228C311.475 387.029 321.658 394.48 328.413 394.48Z"/>
</mask>
<path d="M326.901 384.744C336.579 385.539 346.258 379.976 352.307 372.922C358.255 365.67 362.187 355.934 361.179 346C352.609 346.397 342.023 351.563 335.974 358.815C330.429 365.074 325.691 375.207 326.901 384.744Z" fill="url(#paint6_linear_4_0)"/>
<path d="M328.413 394.48C335.067 394.48 347.064 385.837 361.078 386.632C366.522 387.029 382.25 388.618 392.331 403.321C391.525 403.917 373.68 414.05 373.882 435.31C374.083 460.742 396.465 469.186 396.667 469.385C396.465 469.981 393.138 481.405 384.972 493.128C377.814 503.46 370.454 513.593 358.759 513.791C347.467 513.99 343.737 507.135 330.732 507.135C317.827 507.135 313.593 513.593 302.906 513.99C291.614 514.387 283.045 503.062 275.887 492.73C261.268 471.868 250.077 433.919 265.2 408.288C272.56 395.473 285.968 387.426 300.385 387.228C311.475 387.029 321.658 394.48 328.413 394.48Z" fill="url(#paint7_linear_4_0)"/>
<path d="M352.307 372.922L352.497 373.085L352.5 373.081L352.307 372.922ZM326.901 384.744L326.653 384.776L326.678 384.977L326.88 384.993L326.901 384.744ZM335.974 358.815L336.161 358.981L336.166 358.976L335.974 358.815ZM361.179 346L361.427 345.975L361.404 345.739L361.167 345.75L361.179 346ZM361.078 386.632L361.096 386.382L361.092 386.382L361.078 386.632ZM300.385 387.228L300.389 387.478L300.39 387.478L300.385 387.228ZM265.2 408.288L265.415 408.416L265.417 408.413L265.2 408.288ZM275.887 492.73L276.092 492.588L276.091 492.587L275.887 492.73ZM302.906 513.99L302.915 514.24L302.915 514.24L302.906 513.99ZM358.759 513.791L358.755 513.541L358.755 513.541L358.759 513.791ZM384.972 493.128L384.767 492.985L384.766 492.985L384.972 493.128ZM396.667 469.385L396.904 469.465L396.954 469.317L396.842 469.207L396.667 469.385ZM373.882 435.31L374.132 435.308L374.132 435.308L373.882 435.31ZM392.331 403.321L392.48 403.522L392.674 403.379L392.538 403.18L392.331 403.321ZM352.117 372.759C346.102 379.773 336.495 385.281 326.921 384.495L326.88 384.993C336.663 385.797 346.413 380.178 352.496 373.085L352.117 372.759ZM327.149 384.713C325.951 375.269 330.647 365.205 336.161 358.981L335.787 358.65C330.212 364.943 325.431 375.145 326.653 384.776L327.149 384.713ZM336.166 358.976C342.171 351.776 352.692 346.644 361.19 346.25L361.167 345.75C352.526 346.151 341.875 351.351 335.782 358.655L336.166 358.976ZM360.93 346.025C361.93 355.879 358.03 365.55 352.113 372.764L352.5 373.081C358.48 365.79 362.444 355.99 361.427 345.975L360.93 346.025ZM361.092 386.382C354.032 385.982 347.489 387.959 341.899 390.023C339.091 391.06 336.552 392.107 334.271 392.906C331.993 393.703 330.031 394.23 328.413 394.23V394.73C330.122 394.73 332.154 394.176 334.436 393.378C336.714 392.58 339.297 391.517 342.072 390.492C347.647 388.434 354.11 386.487 361.064 386.881L361.092 386.382ZM328.413 394.23C326.765 394.23 324.893 393.775 322.823 393.082C320.752 392.389 318.51 391.468 316.115 390.546C311.337 388.708 305.979 386.877 300.381 386.978L300.39 387.478C305.882 387.379 311.16 389.175 315.935 391.013C318.315 391.928 320.579 392.858 322.664 393.556C324.749 394.254 326.683 394.73 328.413 394.73V394.23ZM300.382 386.978C285.874 387.178 272.385 395.275 264.983 408.164L265.417 408.413C272.734 395.672 286.063 387.675 300.389 387.478L300.382 386.978ZM264.984 408.161C257.382 421.046 256.403 437.009 259.144 452.342C261.885 467.676 268.352 482.413 275.682 492.874L276.091 492.587C268.803 482.186 262.365 467.517 259.636 452.254C256.908 436.989 257.895 421.161 265.415 408.416L264.984 408.161ZM275.681 492.873C279.26 498.038 283.206 503.474 287.677 507.568C292.15 511.663 297.176 514.442 302.915 514.24L302.897 513.74C297.344 513.936 292.44 511.25 288.015 507.199C283.589 503.147 279.672 497.755 276.092 492.588L275.681 492.873ZM302.915 514.24C308.311 514.039 312.083 512.305 316.083 510.644C320.08 508.985 324.328 507.385 330.732 507.385V506.885C324.23 506.885 319.909 508.514 315.891 510.183C311.876 511.85 308.187 513.543 302.897 513.74L302.915 514.24ZM330.732 507.385C337.182 507.385 341.328 509.082 345.29 510.768C349.259 512.456 353.059 514.142 358.763 514.041L358.755 513.541C353.168 513.64 349.456 511.997 345.486 510.308C341.508 508.616 337.286 506.885 330.732 506.885V507.385ZM358.763 514.041C364.69 513.941 369.51 511.32 373.736 507.444C377.956 503.572 381.6 498.433 385.177 493.27L384.766 492.985C381.185 498.155 377.57 503.247 373.398 507.075C369.23 510.898 364.523 513.443 358.755 513.541L358.763 514.041ZM385.177 493.271C393.366 481.515 396.703 470.058 396.904 469.465L396.43 469.305C396.227 469.903 392.91 481.295 384.767 492.985L385.177 493.271ZM396.842 469.207C396.818 469.182 396.792 469.167 396.787 469.164C396.776 469.158 396.765 469.152 396.756 469.147C396.738 469.138 396.715 469.127 396.69 469.115C396.64 469.092 396.569 469.06 396.483 469.021C396.308 468.942 396.059 468.829 395.745 468.681C395.118 468.383 394.232 467.941 393.174 467.336C391.057 466.126 388.251 464.269 385.446 461.628C379.838 456.349 374.232 447.941 374.132 435.308L373.632 435.312C373.733 448.11 379.419 456.641 385.103 461.992C387.943 464.666 390.783 466.546 392.926 467.77C393.997 468.382 394.895 468.831 395.531 469.133C395.849 469.283 396.102 469.397 396.277 469.477C396.365 469.516 396.432 469.546 396.478 469.568C396.502 469.579 396.517 469.587 396.526 469.591C396.531 469.594 396.531 469.594 396.529 469.593C396.528 469.592 396.524 469.59 396.519 469.586C396.516 469.584 396.504 469.576 396.491 469.563L396.842 469.207ZM374.132 435.308C373.932 414.198 391.646 404.139 392.48 403.522L392.183 403.12C391.404 403.696 373.429 413.903 373.632 435.312L374.132 435.308ZM392.538 403.18C382.386 388.376 366.552 386.781 361.096 386.382L361.06 386.881C366.492 387.277 382.113 388.861 392.125 403.463L392.538 403.18Z" fill="url(#paint8_linear_4_0)" style="mix-blend-mode:overlay" mask="url(#path-4-inside-1_4_0)"/>
</g>
</g>
<path d="M429.227 408.909H446.273L475.909 481.273H477L506.636 408.909H523.682V502H510.318V434.636H509.455L482 501.864H470.909L443.455 434.591H442.591V502H429.227V408.909ZM540.875 483.818V472.455L581.102 408.909H590.057V425.636H584.375L555.602 471.182V471.909H610.739V483.818H540.875ZM585.011 502V480.364L585.102 475.182V408.909H598.42V502H585.011Z" fill="url(#paint9_linear_4_0)"/>
<defs>
<filter id="filter0_f_4_0" x="0" y="0" width="884" height="884" filterUnits="userSpaceOnUse" color-interpolation-filters="sRGB">
<feFlood flood-opacity="0" result="BackgroundImageFix"/>
<feBlend mode="normal" in="SourceGraphic" in2="BackgroundImageFix" result="shape"/>
<feGaussianBlur stdDeviation="44" result="effect1_foregroundBlur_4_0"/>
</filter>
<filter id="filter1_d_4_0" x="75.4167" y="75.4167" width="733.167" height="733.167" filterUnits="userSpaceOnUse" color-interpolation-filters="sRGB">
<feFlood flood-opacity="0" result="BackgroundImageFix"/>
<feColorMatrix in="SourceAlpha" type="matrix" values="0 0 0 0 0 0 0 0 0 0 0 0 0 0 0 0 0 0 127 0" result="hardAlpha"/>
<feOffset/>
<feGaussianBlur stdDeviation="20"/>
<feColorMatrix type="matrix" values="0 0 0 0 1 0 0 0 0 1 0 0 0 0 1 0 0 0 1 0"/>
<feBlend mode="overlay" in2="BackgroundImageFix" result="effect1_dropShadow_4_0"/>
<feBlend mode="normal" in="SourceGraphic" in2="effect1_dropShadow_4_0" result="shape"/>
</filter>
<filter id="filter2_d_4_0" x="214" y="306" width="226.667" height="256" filterUnits="userSpaceOnUse" color-interpolation-filters="sRGB">
<feFlood flood-opacity="0" result="BackgroundImageFix"/>
<feColorMatrix in="SourceAlpha" type="matrix" values="0 0 0 0 0 0 0 0 0 0 0 0 0 0 0 0 0 0 127 0" result="hardAlpha"/>
<feOffset dy="4"/>
<feGaussianBlur stdDeviation="22"/>
<feColorMatrix type="matrix" values="0 0 0 0 0 0 0 0 0 0 0 0 0 0 0 0 0 0 0.16 0"/>
<feBlend mode="normal" in2="BackgroundImageFix" result="effect1_dropShadow_4_0"/>
<feBlend mode="normal" in="SourceGraphic" in2="effect1_dropShadow_4_0" result="shape"/>
</filter>
<radialGradient id="paint0_radial_4_0" cx="0" cy="0" r="1" gradientUnits="userSpaceOnUse" gradientTransform="translate(88.0001 796) rotate(-45) scale(500.632 703.28)">
<stop stop-color="#E81D72"/>
<stop offset="1" stop-color="#FF0000" stop-opacity="0"/>
</radialGradient>
<radialGradient id="paint1_radial_4_0" cx="0" cy="0" r="1" gradientUnits="userSpaceOnUse" gradientTransform="translate(88 88) rotate(45) scale(500.632 296.784)">
<stop stop-color="#FF8461"/>
<stop offset="1" stop-color="#FF5C00" stop-opacity="0.6"/>
</radialGradient>
<radialGradient id="paint2_radial_4_0" cx="0" cy="0" r="1" gradientUnits="userSpaceOnUse" gradientTransform="translate(796 88) rotate(135) scale(500.632 779.565)">
<stop stop-color="#00A7FF"/>
<stop offset="1" stop-color="#00A6FE" stop-opacity="0.12"/>
</radialGradient>
<radialGradient id="paint3_radial_4_0" cx="0" cy="0" r="1" gradientUnits="userSpaceOnUse" gradientTransform="translate(796 796) rotate(-135) scale(500.632)">
<stop offset="0.10272" stop-color="#520AEB"/>
<stop offset="1" stop-color="#9F73FF" stop-opacity="0"/>
</radialGradient>
<radialGradient id="paint4_radial_4_0" cx="0" cy="0" r="1" gradientUnits="userSpaceOnUse" gradientTransform="translate(442 88) rotate(90) scale(414.311 137.969)">
<stop stop-color="#F9C43C"/>
<stop offset="1" stop-color="#E7A601" stop-opacity="0"/>
</radialGradient>
<linearGradient id="paint5_linear_4_0" x1="116.667" y1="116.667" x2="767.333" y2="767.333" gradientUnits="userSpaceOnUse">
<stop stop-color="#201F24"/>
<stop offset="1" stop-color="#060606"/>
</linearGradient>
<linearGradient id="paint6_linear_4_0" x1="258" y1="514" x2="429.286" y2="491.703" gradientUnits="userSpaceOnUse">
<stop stop-color="#4E525B"/>
<stop offset="1" stop-color="white"/>
</linearGradient>
<linearGradient id="paint7_linear_4_0" x1="258" y1="514" x2="429.286" y2="491.703" gradientUnits="userSpaceOnUse">
<stop stop-color="#4E525B"/>
<stop offset="1" stop-color="white"/>
</linearGradient>
<linearGradient id="paint8_linear_4_0" x1="258" y1="523.333" x2="411.829" y2="502.798" gradientUnits="userSpaceOnUse">
<stop stop-color="#9E9E9E"/>
<stop offset="1" stop-color="#F3F3F3" stop-opacity="0"/>
</linearGradient>
<linearGradient id="paint9_linear_4_0" x1="622" y1="442" x2="419" y2="442" gradientUnits="userSpaceOnUse">
<stop stop-color="#737373"/>
<stop offset="1" stop-color="#D9D9D9"/>
</linearGradient>
</defs>
</svg>
